<svg width="60" height="44" viewBox="0 0 60 44" fill="none" xmlns="http://www.w3.org/2000/svg">
<path d="M15 44C10.8182 44 7.27273 42.5333 4.36364 39.6C1.45455 36.6667 0 33.0917 0 28.875C0 25.3 1.10227 22.149 3.30682 19.4219C5.51136 16.6948 8.27273 14.9417 11.5909 14.1625C12.7273 10.0375 14.9773 6.64583 18.3409 3.9875C21.7045 1.32917 25.5909 0 30 0C35.4091 0 39.9432 1.89062 43.6023 5.67188C47.2614 9.45312 49.0909 13.9792 49.0909 19.25C52.5 19.6167 55.1705 21.0375 57.1023 23.5125C59.0341 25.9875 60 28.6688 60 31.5563C60 34.9938 58.8068 37.9271 56.4205 40.3563C54.0341 42.7854 51.1364 44 47.7273 44H15ZM15 38.5H47.7273C49.6364 38.5 51.25 37.8354 52.5682 36.5063C53.8864 35.1771 54.5455 33.55 54.5455 31.625C54.5455 29.7 53.8864 28.0729 52.5682 26.7438C51.25 25.4146 49.6364 24.75 47.7273 24.75H43.6364V19.25C43.6364 15.4458 42.3068 12.2031 39.6477 9.52188C36.9886 6.84063 33.7727 5.5 30 5.5C27.1364 5.5 24.5909 6.29062 22.3636 7.87187C20.1364 9.45312 18.5 11.4813 17.4545 13.9563C20.5455 14.4604 23.2045 15.801 25.4318 17.9781C27.6591 20.1552 29.0909 22.7792 29.7273 25.85C29.9091 26.6292 29.7159 27.3281 29.1477 27.9469C28.5795 28.5656 27.8409 28.875 26.9318 28.875C26.2955 28.875 25.7386 28.6573 25.2614 28.2219C24.7841 27.7865 24.4545 27.225 24.2727 26.5375C23.7727 24.475 22.6591 22.7448 20.9318 21.3469C19.2045 19.949 17.2273 19.25 15 19.25C12.3636 19.25 10.1136 20.1896 8.25 22.0688C6.38636 23.9479 5.45455 26.2167 5.45455 28.875C5.45455 31.5333 6.38636 33.8021 8.25 35.6813C10.1136 37.5604 12.3636 38.5 15 38.5Z" fill="url(#paint0_linear_297_2513)"/>
<defs>
<linearGradient id="paint0_linear_297_2513" x1="60.141" y1="43.3923" x2="-1.94863" y2="41.0584" gradientUnits="userSpaceOnUse">
<stop stop-color="#5A4A78"/>
<stop offset="1" stop-color="#148DA2"/>
</linearGradient>
</defs>
</svg>
