<svg width="22" height="16" viewBox="0 0 22 16" fill="none" xmlns="http://www.w3.org/2000/svg">
<path d="M5.5 16C3.96667 16 2.66667 15.4667 1.6 14.4C0.533333 13.3333 0 12.0333 0 10.5C0 9.2 0.404167 8.05417 1.2125 7.0625C2.02083 6.07083 3.03333 5.43333 4.25 5.15C4.66667 3.65 5.49167 2.41667 6.725 1.45C7.95833 0.483333 9.38333 0 11 0C12.9833 0 14.6458 0.6875 15.9875 2.0625C17.3292 3.4375 18 5.08333 18 7C19.25 7.13333 20.2292 7.65 20.9375 8.55C21.6458 9.45 22 10.425 22 11.475C22 12.725 21.5625 13.7917 20.6875 14.675C19.8125 15.5583 18.75 16 17.5 16H5.5ZM5.5 14H17.5C18.2 14 18.7917 13.7583 19.275 13.275C19.7583 12.7917 20 12.2 20 11.5C20 10.8 19.7583 10.2083 19.275 9.725C18.7917 9.24167 18.2 9 17.5 9H16V7C16 5.61667 15.5125 4.4375 14.5375 3.4625C13.5625 2.4875 12.3833 2 11 2C9.95 2 9.01667 2.2875 8.2 2.8625C7.38333 3.4375 6.78333 4.175 6.4 5.075C7.7 5.29167 8.79167 5.90417 9.675 6.9125C10.5583 7.92083 11 9.11667 11 10.5H9C9 9.53333 8.65833 8.70833 7.975 8.025C7.29167 7.34167 6.46667 7 5.5 7C4.53333 7 3.70833 7.34167 3.025 8.025C2.34167 8.70833 2 9.53333 2 10.5C2 11.4667 2.34167 12.2917 3.025 12.975C3.70833 13.6583 4.53333 14 5.5 14Z" fill="url(#paint0_linear_112_2509)"/>
<defs>
<linearGradient id="paint0_linear_112_2509" x1="22.0517" y1="15.779" x2="-0.713961" y2="14.9161" gradientUnits="userSpaceOnUse">
<stop stop-color="#9747FF"/>
<stop offset="1" stop-color="#44CBCA"/>
</linearGradient>
</defs>
</svg>
