<svg width="120" height="21" viewBox="0 0 120 21" fill="none" xmlns="http://www.w3.org/2000/svg">
<path d="M9.64289 20.36H5.42238V3.59294H0V0H15.0653V3.59294H9.64289V20.36Z" fill="url(#paint0_linear_128_2548)"/>
<path d="M34.4936 20.36H30.2731V11.5773H22.3632V20.36H18.1426V0H22.3632V7.98432H30.2731V0H34.4936V20.36Z" fill="url(#paint1_linear_128_2548)"/>
<path d="M55.754 13.1741C55.754 14.5809 55.4466 15.8546 54.8317 16.9952C54.2354 18.1168 53.3224 19.0103 52.0925 19.6756C50.8814 20.322 49.3441 20.6452 47.4807 20.6452C44.8348 20.6452 42.8223 19.9608 41.4434 18.5921C40.0646 17.2043 39.3751 15.3793 39.3751 13.1171V0H43.5956V12.4612C43.5956 14.1341 43.931 15.3128 44.6018 15.9971C45.2727 16.6815 46.2696 17.0237 47.5925 17.0237C48.5242 17.0237 49.2789 16.8621 49.8565 16.5389C50.4342 16.2158 50.8534 15.712 51.1143 15.0276C51.3938 14.3433 51.5335 13.4783 51.5335 12.4327V0H55.754V13.1741Z" fill="url(#paint2_linear_128_2548)"/>
<path d="M99.9251 9.9804C99.9251 12.2616 99.4965 14.1722 98.6393 15.712C97.7822 17.2518 96.5337 18.4115 94.894 19.1909C93.2729 19.9703 91.3163 20.36 89.0244 20.36H83.3784V0H89.6393C91.7263 0 93.5337 0.380206 95.0617 1.14062C96.6083 1.90103 97.8008 3.02263 98.6393 4.50543C99.4965 5.96923 99.9251 7.79421 99.9251 9.9804ZM95.5369 10.0945C95.5369 8.59264 95.3226 7.35698 94.894 6.38745C94.4654 5.41793 93.8226 4.70504 92.9654 4.2488C92.1269 3.77354 91.0927 3.53591 89.8629 3.53591H87.5989V16.7956H89.4157C91.484 16.7956 93.0213 16.2348 94.0275 15.1132C95.0337 13.9916 95.5369 12.3187 95.5369 10.0945Z" fill="url(#paint3_linear_128_2548)"/>
<path d="M109.882 0C111.689 0 113.18 0.228123 114.354 0.68437C115.528 1.12161 116.404 1.79647 116.981 2.70897C117.559 3.60245 117.848 4.73356 117.848 6.1023C117.848 7.0338 117.671 7.85124 117.317 8.55462C116.981 9.23899 116.525 9.82831 115.947 10.3226C115.388 10.7978 114.783 11.1875 114.13 11.4917L120 20.36H115.304L110.553 12.5468H108.289V20.36H104.068V0H109.882ZM109.574 3.53591H108.289V9.03939H109.658C110.59 9.03939 111.345 8.93483 111.922 8.72572C112.5 8.5166 112.919 8.20293 113.18 7.78471C113.441 7.34747 113.571 6.82469 113.571 6.21636C113.571 5.57001 113.422 5.05673 113.124 4.67653C112.845 4.27731 112.407 3.99216 111.811 3.82107C111.233 3.63096 110.488 3.53591 109.574 3.53591Z" fill="url(#paint4_linear_128_2548)"/>
<path fill-rule="evenodd" clip-rule="evenodd" d="M72.9676 20.36H77.5077L74.6446 15.2557L74.2466 14.5551L65.98 0H61.2903L64.275 4.96168L72.9676 20.36ZM74.5972 11.2926C74.5946 11.2161 74.5918 11.1399 74.5887 11.064L74.5328 9.63821V0H78.334V18.0645L74.5972 11.2926ZM60.6452 2.58065L60.6414 20.36H64.4147V10.7788C64.3961 10.2846 64.3775 9.7998 64.3588 9.32454C64.3453 8.96571 64.3269 8.75001 64.3035 8.4769C64.2947 8.37381 64.2852 8.26255 64.275 8.13233L60.6452 2.58065Z" fill="url(#paint5_linear_128_2548)"/>
<defs>
<linearGradient id="paint0_linear_128_2548" x1="120.282" y1="20.36" x2="-0.960279" y2="0.934267" gradientUnits="userSpaceOnUse">
<stop stop-color="#5A4A78"/>
<stop offset="1" stop-color="#166775"/>
</linearGradient>
<linearGradient id="paint1_linear_128_2548" x1="120.282" y1="20.36" x2="-0.960279" y2="0.934267" gradientUnits="userSpaceOnUse">
<stop stop-color="#5A4A78"/>
<stop offset="1" stop-color="#166775"/>
</linearGradient>
<linearGradient id="paint2_linear_128_2548" x1="120.282" y1="20.36" x2="-0.960279" y2="0.934267" gradientUnits="userSpaceOnUse">
<stop stop-color="#5A4A78"/>
<stop offset="1" stop-color="#166775"/>
</linearGradient>
<linearGradient id="paint3_linear_128_2548" x1="120.282" y1="20.36" x2="-0.960279" y2="0.934267" gradientUnits="userSpaceOnUse">
<stop stop-color="#5A4A78"/>
<stop offset="1" stop-color="#166775"/>
</linearGradient>
<linearGradient id="paint4_linear_128_2548" x1="120.282" y1="20.36" x2="-0.960279" y2="0.934267" gradientUnits="userSpaceOnUse">
<stop stop-color="#5A4A78"/>
<stop offset="1" stop-color="#166775"/>
</linearGradient>
<linearGradient id="paint5_linear_128_2548" x1="120.282" y1="20.36" x2="-0.960279" y2="0.934267" gradientUnits="userSpaceOnUse">
<stop stop-color="#5A4A78"/>
<stop offset="1" stop-color="#166775"/>
</linearGradient>
</defs>
</svg>
